<svg xmlns="http://www.w3.org/2000/svg" viewBox="0 180 864 510">
  <path fill="#60a5fa" d="M22.361,500.3714c-17.8735-14.234,24.0633-33.0334,38.0942-49.7028
    c-10.1459-80.102,106.831-185.7606,307.5322-202.0978c20.4773-37.0473,52.3559-40.372,84.8306-40.285
    c-8.5249,13.5847-22.1681,26.2674-8.4779,51.2122c158.2114,69.5834,228.8711,201.4813,267.4629,295.2423
    C758.9705,564.225,817.4357,568.5789,846,610.8599c-47.2626-18.2183-82.8973,18.9428-122.9077-1.5093
    c-13.45,16.9971-61.3889,17.5406-64.1404,46.3653c-8.2065-12.4518-36.2969-33.4627,15.3087-87.1592
    c-35.0837-10.5622-100.0232-101.3778-156.0112-116.24c-71.4506-18.9664-118.6518-35.2794-226.5284-19.1213
    c-4.8494,34.8432,5.8949,62.5757,22.372,87.6938c-44.2086,5.2197-66.6491-34.1635-90.3848-70.8933
    c-62.3893,11.3006-83.6126,19.2625-114.5504,28.0123C75.5291,490.5925,25.8338,520.7261,22.361,500.3714z"/>
</svg>
